#N canvas 946 20 960 977 12;
#X obj 1626 538 nn~ sol_full.ts encode;
#X obj 1586 493 osc~ 0.1;
#X floatatom 1585 472 5 0 0 0 - - - 0;
#X obj 1650 492 osc~ 0.1;
#X floatatom 1649 471 5 0 0 0 - - - 0;
#X obj 1720 490 osc~ 0.1;
#X floatatom 1719 469 5 0 0 0 - - - 0;
#X obj 1784 490 osc~ 0.1;
#X floatatom 1783 469 5 0 0 0 - - - 0;
#X obj 1866 491 osc~ 0.1;
#X floatatom 1865 470 5 0 0 0 - - - 0;
#X obj 1936 492 osc~ 0.1;
#X floatatom 1935 471 5 0 0 0 - - - 0;
#X obj 1753 923 else/lowpass~ 20000 0.1;
#X obj 1750 949 else/highpass~ 75 0.1;
#X obj 1752 897 nn~ percussion.ts decode;
#X obj 1621 378 loadbang;
#X msg 1621 402 5 10 15 20 25 30;
#X obj 1613 432 unpack f f f f f f, f 44;
#N canvas -14 20 1920 977 matrice 1;
#X floatatom 21 724 5 0 0 0 - - - 0;
#X floatatom 78 698 5 0 0 0 - - - 0;
#X obj 503 76 inlet~;
#X obj 557 74 inlet~;
#X floatatom 134 670 5 0 0 0 - - - 0;
#X floatatom 191 644 5 0 0 0 - - - 0;
#X obj 610 75 inlet~;
#X obj 670 76 inlet~;
#X floatatom 251 612 5 0 0 0 - - - 0;
#X floatatom 308 586 5 0 0 0 - - - 0;
#X obj 723 77 inlet~;
#X obj 775 76 inlet~;
#X floatatom 364 558 5 0 0 0 - - - 0;
#X floatatom 421 532 5 0 0 0 - - - 0;
#X obj 829 75 inlet~;
#X obj 889 72 inlet~;
#X floatatom 477 501 5 0 0 0 - - - 0;
#X floatatom 534 475 5 0 0 0 - - - 0;
#X obj 951 68 inlet~;
#X obj 1005 66 inlet~;
#X floatatom 590 447 5 0 0 0 - - - 0;
#X floatatom 647 421 5 0 0 0 - - - 0;
#X obj 1058 67 inlet~;
#X obj 1118 68 inlet~;
#X floatatom 707 389 5 0 0 0 - - - 0;
#X floatatom 764 363 5 0 0 0 - - - 0;
#X obj 1176 67 inlet~;
#X obj 1230 65 inlet~;
#X floatatom 820 335 5 0 0 0 - - - 0;
#X floatatom 877 309 5 0 0 0 - - - 0;
#X obj 44 80 inlet;
#X obj 22 795 outlet~;
#X obj 85 795 outlet~;
#X obj 147 796 outlet~;
#X obj 210 796 outlet~;
#X obj 364 592 cyclone/gate~ 4 1, f 71;
#X obj 422 561 cyclone/gate~ 4 1, f 66;
#X obj 309 615 cyclone/gate~ 4 1, f 69;
#X obj 252 641 cyclone/gate~ 4 1, f 67;
#X obj 192 673 cyclone/gate~ 4 1, f 66;
#X obj 135 699 cyclone/gate~ 4 1, f 62;
#X obj 79 727 cyclone/gate~ 4 1, f 62;
#X obj 22 753 cyclone/gate~ 4 1, f 48;
#X obj 478 530 cyclone/gate~ 4 1, f 66;
#X obj 535 504 cyclone/gate~ 4 1, f 66;
#X obj 591 476 cyclone/gate~ 4 1, f 66;
#X obj 648 450 cyclone/gate~ 4 1, f 66;
#X obj 708 418 cyclone/gate~ 4 1, f 66;
#X obj 765 392 cyclone/gate~ 4 1, f 66;
#X obj 818 364 cyclone/gate~ 4 1, f 66;
#X obj 874 338 cyclone/gate~ 4 1, f 66;
#X obj 37 159 unpack f f f f f f f f f f f f f f f f, f 68;
#X connect 0 0 42 0;
#X connect 1 0 41 0;
#X connect 2 0 42 1;
#X connect 3 0 41 1;
#X connect 4 0 40 0;
#X connect 5 0 39 0;
#X connect 6 0 40 1;
#X connect 7 0 39 1;
#X connect 8 0 38 0;
#X connect 9 0 37 0;
#X connect 10 0 38 1;
#X connect 11 0 37 1;
#X connect 12 0 35 0;
#X connect 13 0 36 0;
#X connect 14 0 35 1;
#X connect 15 0 36 1;
#X connect 16 0 43 0;
#X connect 17 0 44 0;
#X connect 18 0 43 1;
#X connect 19 0 44 1;
#X connect 20 0 45 0;
#X connect 21 0 46 0;
#X connect 22 0 45 1;
#X connect 23 0 46 1;
#X connect 24 0 47 0;
#X connect 25 0 48 0;
#X connect 26 0 47 1;
#X connect 27 0 48 1;
#X connect 28 0 49 0;
#X connect 29 0 50 0;
#X connect 30 0 51 0;
#X connect 35 0 31 0;
#X connect 35 1 32 0;
#X connect 35 2 33 0;
#X connect 35 3 34 0;
#X connect 36 0 31 0;
#X connect 36 1 32 0;
#X connect 36 2 33 0;
#X connect 36 3 34 0;
#X connect 37 0 31 0;
#X connect 37 1 32 0;
#X connect 37 2 33 0;
#X connect 37 3 34 0;
#X connect 38 0 31 0;
#X connect 38 1 32 0;
#X connect 38 2 33 0;
#X connect 38 3 34 0;
#X connect 39 0 31 0;
#X connect 39 1 32 0;
#X connect 39 2 33 0;
#X connect 39 3 34 0;
#X connect 40 0 31 0;
#X connect 40 1 32 0;
#X connect 40 2 33 0;
#X connect 40 3 34 0;
#X connect 41 0 31 0;
#X connect 41 1 32 0;
#X connect 41 2 33 0;
#X connect 41 3 34 0;
#X connect 42 0 31 0;
#X connect 42 1 32 0;
#X connect 42 2 33 0;
#X connect 42 3 34 0;
#X connect 43 0 31 0;
#X connect 43 1 32 0;
#X connect 43 2 33 0;
#X connect 43 3 34 0;
#X connect 44 0 31 0;
#X connect 44 1 32 0;
#X connect 44 2 33 0;
#X connect 44 3 34 0;
#X connect 45 0 31 0;
#X connect 45 1 32 0;
#X connect 45 2 33 0;
#X connect 45 3 34 0;
#X connect 46 0 31 0;
#X connect 46 1 32 0;
#X connect 46 2 33 0;
#X connect 46 3 34 0;
#X connect 47 0 31 0;
#X connect 47 1 32 0;
#X connect 47 2 33 0;
#X connect 47 3 34 0;
#X connect 48 0 31 0;
#X connect 48 1 32 0;
#X connect 48 2 33 0;
#X connect 48 3 34 0;
#X connect 49 0 31 0;
#X connect 49 1 32 0;
#X connect 49 2 33 0;
#X connect 49 3 34 0;
#X connect 50 0 31 0;
#X connect 50 1 32 0;
#X connect 50 2 33 0;
#X connect 50 3 34 0;
#X connect 51 0 0 0;
#X connect 51 1 1 0;
#X connect 51 2 4 0;
#X connect 51 3 5 0;
#X connect 51 4 8 0;
#X connect 51 5 9 0;
#X connect 51 6 12 0;
#X connect 51 7 13 0;
#X connect 51 8 16 0;
#X connect 51 9 17 0;
#X connect 51 10 20 0;
#X connect 51 11 21 0;
#X connect 51 12 24 0;
#X connect 51 13 25 0;
#X connect 51 14 28 0;
#X connect 51 15 29 0;
#X restore 1710 866 pd matrice;
#X f 50;
#X msg 2022 476 1 0 0 0 0 0 0 0 0 0 0 0 0 0 0 0;
#X msg 2011 453 1 2 3 4 5 6 7 8 9 10 11 12 13 14 15 16;
#X msg 2033 550 0 0 0 0 0 0 0 0 5 5 5 5 5 5 5 5;
#X msg 2031 573 5 4 5 5 4 0 0 0 5 5 5 5 5 5 5 5;
#X msg 2037 525 0 0 0 0 0 0 0 0 3 4 3 4 3 4 3 5;
#X msg 2030 500 1 0 0 0 0 0 0 0 2 2 2 2 2 2 2 2;
#X msg 2030 599 1 0 0 0 0 0 0 0 1 1 1 1 2 1 1 1;
#X msg 2037 622 0 7 7 0 0 0 0 0 0 0 0 0 0 0 0 0;
#X msg 2034 646 0 0 10 0 0 0 0 0 10 0 10 0 0 0 0 0;
#X msg 2042 673 0 0 10 0 0 9 0 0 9 9 9 0 0 9 0 0;
#X msg 2048 700 12 0 0 0 0 0 12 0 0 0 0 0 0 0 0 0;
#X msg 2052 735 0 0 3 0 0 0 0 0 0 3 0 0 0 0 0 0;
#X msg 2058 762 2 0 0 0 0 0 2 0 0 2 0 0 0 2 0 2;
#X msg 2068 818 2 10 10 10 10 0 2 0 0 2 0 2 10 2 0 2;
#X msg 2062 791 8 8 3 8 0 0 0 0 0 3 0 0 0 0 0 0;
#X text 1713 370 M3;
#X obj 1749 1063 *~;
#X obj 1811 1048 hsl 50 19 0 1 0 0 empty empty empty -2 -10 0 12 #fcfcfc #000000 #000000 0 1;
#X floatatom 1808 1072 5 0 0 0 - - - 0;
#N canvas 304 70 1136 623 ritardo 0;
#X obj 183 448 *~;
#X floatatom 311 404 5 0 0.99 0 - - - 0;
#X obj 310 375 inlet;
#X obj 184 368 inlet~;
#X obj 459 10 block~ 4;
#X obj 40 216 delwrite~ buf1 10000;
#X obj 183 404 delread4~ buf1;
#X obj 38 579 outlet~;
#X obj 28 22 inlet~;
#X obj 382 417 delread4~ buf1;
#X obj 381 453 *~;
#X floatatom 499 418 5 0 0.99 0 - - - 0;
#X obj 497 394 inlet;
#X obj 381 395 inlet~;
#X text 323 143 delay spettrale;
#X obj 79 145 *~ 1;
#X obj 33 190 nn~ percussion.ts decode;
#X obj 28 63 nn~ percussion.ts encode;
#X obj 42 144 *~ 1;
#X obj 119 144 *~ 1;
#X obj 155 143 *~ 1;
#X obj 579 450 *~;
#X floatatom 707 406 5 0 0.99 0 - - - 0;
#X obj 706 377 inlet;
#X obj 580 370 inlet~;
#X obj 579 406 delread4~ buf1;
#X obj 778 419 delread4~ buf1;
#X obj 777 455 *~;
#X floatatom 895 420 5 0 0.99 0 - - - 0;
#X obj 893 396 inlet;
#X obj 777 397 inlet~;
#X connect 0 0 17 0;
#X connect 1 0 0 1;
#X connect 2 0 1 0;
#X connect 3 0 6 0;
#X connect 6 0 0 0;
#X connect 8 0 17 0;
#X connect 9 0 10 0;
#X connect 10 0 17 0;
#X connect 11 0 10 1;
#X connect 12 0 11 0;
#X connect 13 0 9 0;
#X connect 15 0 16 1;
#X connect 16 0 5 0;
#X connect 16 0 7 0;
#X connect 17 0 18 0;
#X connect 17 1 15 0;
#X connect 17 2 19 0;
#X connect 17 3 20 0;
#X connect 18 0 16 0;
#X connect 19 0 16 2;
#X connect 20 0 16 3;
#X connect 21 0 17 0;
#X connect 22 0 21 1;
#X connect 23 0 22 0;
#X connect 24 0 25 0;
#X connect 25 0 21 0;
#X connect 26 0 27 0;
#X connect 27 0 17 0;
#X connect 28 0 27 1;
#X connect 29 0 28 0;
#X connect 30 0 26 0;
#X restore 1004 929 pd ritardo;
#X f 48;
#X obj 1042 810 osc~ 0.1;
#X floatatom 1101 900 5 0 0.99 0 - - - 0;
#X obj 1042 835 *~ 0.5;
#X obj 1041 862 +~ 0.5;
#X obj 1043 889 *~;
#X floatatom 1095 864 5 0 0 0 - - - 0;
#X obj 1006 954 else/lowpass~ 20000 0.1;
#X floatatom 1040 787 5 0 0 0 - - - 0;
#X obj 1147 796 osc~ 0.1;
#X obj 1147 821 *~ 0.5;
#X obj 1146 848 +~ 0.5;
#X obj 1148 875 *~;
#X floatatom 1200 850 5 0 0 0 - - - 0;
#X floatatom 1146 772 5 0 0 0 - - - 0;
#X floatatom 1168 899 5 0 0.99 0 - - - 0;
#X obj 1004 979 else/highpass~ 75 0.1;
#X obj 18 365 loadbang;
#X obj 1243 788 osc~ 0.1;
#X obj 1243 813 *~ 0.5;
#X obj 1242 840 +~ 0.5;
#X obj 1244 867 *~;
#X floatatom 1296 842 5 0 0 0 - - - 0;
#X floatatom 1242 764 5 0 0 0 - - - 0;
#X floatatom 1251 893 5 0 0.99 0 - - - 0;
#X obj 1340 788 osc~ 0.1;
#X obj 1340 813 *~ 0.5;
#X obj 1339 840 +~ 0.5;
#X obj 1341 867 *~;
#X floatatom 1406 842 5 0 0 0 - - - 0;
#X floatatom 1339 764 5 0 0 0 - - - 0;
#X floatatom 1348 893 5 0 0.99 0 - - - 0;
#X obj 1003 763 vs.dust~ 3;
#X floatatom 1003 742 5 0 0 0 - - - 0;
#X obj 1155 85 loadbang;
#X obj 1040 685 unpack f f f f f f f f f f f f f, f 54;
#X msg 1158 458 10 1 33 0 1 10 0 5 35 0 1 50 0;
#X msg 1164 483 1 1 1 0 1 10 0 5 35 0 1 50 0;
#X msg 1171 512 3 1 1 0.5 1 10 0 5 35 0 1 50 0;
#X msg 1175 537 3 1 1 0.5 1 10 0.9 5 35 0 1 50 0;
#X msg 1177 564 3 1 1 0.5 1 10 0.9 5 35 0 1 50 0.7;
#X msg 1187 594 1 1 1 0.5 1 10 0.5 5 35 0 1 50 0.5;
#X text 1406 450 M2;
#X msg 1197 619 10 1 1 0.5 1 10 0.5 5 35 0 1 50 0.5;
#X obj 1749 990 Limiter3;
#X obj 1008 1084 *~;
#X obj 1070 1069 hsl 50 19 0 1 0 0 empty empty empty -2 -10 0 12 #fcfcfc #000000 #000000 0 1;
#X floatatom 1067 1093 5 0 0 0 - - - 0;
#X obj 2015 421 r v3;
#X obj 1040 602 r v2;
#X obj 203 1004 nn~ VCTK.ts decode 8192;
#X obj 205 1031 else/lowpass~ 20000 0.1;
#X obj 203 1056 else/highpass~ 75 0.1;
#N canvas 0 25 1426 458 priors_fdbck 0;
#X obj 100 364 *~;
#X obj 100 407 outlet~;
#X obj 50 271 delwrite~ bp1 10000;
#X obj 1352 18 block~ 4;
#X obj 50 222 nn~ VCTK.ts prior 8192, f 172;
#X obj 50 186 inlet~;
#X obj 243 368 *~;
#X obj 243 411 outlet~;
#X obj 236 283 delwrite~ bp2 10000;
#X obj 98 329 delread4~ bp1;
#X obj 241 333 delread4~ bp2;
#X obj 407 368 *~;
#X obj 407 411 outlet~;
#X obj 400 283 delwrite~ bp3 10000;
#X obj 405 333 delread4~ bp3;
#X obj 569 368 *~;
#X obj 569 411 outlet~;
#X obj 562 283 delwrite~ bp4 10000;
#X obj 567 333 delread4~ bp4;
#X obj 778 362 *~;
#X obj 778 405 outlet~;
#X obj 921 366 *~;
#X obj 921 409 outlet~;
#X obj 1085 366 *~;
#X obj 1085 409 outlet~;
#X obj 1247 366 *~;
#X obj 1247 409 outlet~;
#X obj 776 327 delread4~ bp5;
#X obj 919 331 delread4~ bp6;
#X obj 1083 331 delread4~ bp7;
#X obj 1245 331 delread4~ bp8;
#X floatatom 191 122 5 0 0.99 0 - - - 0;
#X obj 106 122 osc~;
#X floatatom 106 100 5 0 0 0 - - - 0;
#X obj 108 195 *~;
#X floatatom 149 122 5 0 0 0 - - - 0;
#X obj 106 146 *~ 0.5;
#X obj 106 172 +~ 0.5;
#X floatatom 344 84 5 0 0.99 0 - - - 0;
#X obj 257 62 osc~;
#X floatatom 257 40 5 0 0 0 - - - 0;
#X obj 260 144 *~;
#X floatatom 300 62 5 0 0 0 - - - 0;
#X obj 257 86 *~ 0.5;
#X obj 257 112 +~ 0.5;
#X floatatom 491 101 5 0 0.99 0 - - - 0;
#X obj 404 79 osc~;
#X floatatom 404 57 5 0 0 0 - - - 0;
#X obj 407 161 *~;
#X floatatom 447 79 5 0 0 0 - - - 0;
#X obj 404 103 *~ 0.5;
#X obj 404 129 +~ 0.5;
#X floatatom 631 95 5 0 0.99 0 - - - 0;
#X obj 544 73 osc~;
#X floatatom 544 51 5 0 0 0 - - - 0;
#X obj 547 155 *~;
#X floatatom 587 73 5 0 0 0 - - - 0;
#X obj 544 97 *~ 0.5;
#X obj 544 123 +~ 0.5;
#X floatatom 834 109 5 0 0.99 0 - - - 0;
#X obj 747 87 osc~;
#X floatatom 747 65 5 0 0 0 - - - 0;
#X obj 750 169 *~;
#X floatatom 790 87 5 0 0 0 - - - 0;
#X obj 747 111 *~ 0.5;
#X obj 747 137 +~ 0.5;
#X floatatom 974 103 5 0 0.99 0 - - - 0;
#X obj 887 81 osc~;
#X floatatom 887 59 5 0 0 0 - - - 0;
#X obj 890 163 *~;
#X floatatom 930 81 5 0 0 0 - - - 0;
#X obj 887 105 *~ 0.5;
#X obj 887 131 +~ 0.5;
#X floatatom 1121 120 5 0 0.99 0 - - - 0;
#X obj 1034 98 osc~;
#X floatatom 1034 76 5 0 0 0 - - - 0;
#X obj 1037 180 *~;
#X floatatom 1077 98 5 0 0 0 - - - 0;
#X obj 1034 122 *~ 0.5;
#X obj 1034 148 +~ 0.5;
#X floatatom 1261 114 5 0 0.99 0 - - - 0;
#X obj 1174 92 osc~;
#X floatatom 1174 70 5 0 0 0 - - - 0;
#X obj 1177 174 *~;
#X floatatom 1217 92 5 0 0 0 - - - 0;
#X obj 1174 116 *~ 0.5;
#X obj 1174 142 +~ 0.5;
#X obj 159 20 inlet;
#X obj 203 18 inlet;
#X obj 102 20 inlet;
#X obj 313 17 inlet;
#X obj 357 15 inlet;
#X obj 256 17 inlet;
#X obj 472 18 inlet;
#X obj 516 16 inlet;
#X obj 415 18 inlet;
#X obj 626 15 inlet;
#X obj 670 13 inlet;
#X obj 569 15 inlet;
#X obj 810 15 inlet;
#X obj 854 13 inlet;
#X obj 753 15 inlet;
#X obj 964 12 inlet;
#X obj 1008 10 inlet;
#X obj 907 12 inlet;
#X obj 1111 15 inlet;
#X obj 1155 13 inlet;
#X obj 1054 15 inlet;
#X obj 1265 12 inlet;
#X obj 1309 10 inlet;
#X obj 1208 12 inlet;
#X obj 728 269 delwrite~ bp5 10000;
#X obj 914 281 delwrite~ bp6 10000;
#X obj 1078 281 delwrite~ bp7 10000;
#X obj 1240 281 delwrite~ bp8 10000;
#X connect 0 0 1 0;
#X connect 0 0 4 0;
#X connect 4 0 2 0;
#X connect 4 1 8 0;
#X connect 4 2 13 0;
#X connect 4 3 17 0;
#X connect 4 4 111 0;
#X connect 4 5 112 0;
#X connect 4 6 113 0;
#X connect 4 7 114 0;
#X connect 5 0 4 0;
#X connect 6 0 7 0;
#X connect 9 0 0 0;
#X connect 10 0 6 0;
#X connect 11 0 12 0;
#X connect 14 0 11 0;
#X connect 15 0 16 0;
#X connect 18 0 15 0;
#X connect 19 0 20 0;
#X connect 21 0 22 0;
#X connect 23 0 24 0;
#X connect 25 0 26 0;
#X connect 27 0 19 0;
#X connect 28 0 21 0;
#X connect 29 0 23 0;
#X connect 30 0 25 0;
#X connect 31 0 0 1;
#X connect 32 0 36 0;
#X connect 33 0 32 0;
#X connect 34 0 9 0;
#X connect 35 0 34 1;
#X connect 36 0 37 0;
#X connect 37 0 34 0;
#X connect 38 0 6 1;
#X connect 39 0 43 0;
#X connect 40 0 39 0;
#X connect 41 0 10 0;
#X connect 42 0 41 1;
#X connect 43 0 44 0;
#X connect 44 0 41 0;
#X connect 45 0 11 1;
#X connect 46 0 50 0;
#X connect 47 0 46 0;
#X connect 48 0 14 0;
#X connect 49 0 48 1;
#X connect 50 0 51 0;
#X connect 51 0 48 0;
#X connect 52 0 15 1;
#X connect 53 0 57 0;
#X connect 54 0 53 0;
#X connect 55 0 18 0;
#X connect 56 0 55 1;
#X connect 57 0 58 0;
#X connect 58 0 55 0;
#X connect 59 0 19 1;
#X connect 60 0 64 0;
#X connect 61 0 60 0;
#X connect 62 0 27 0;
#X connect 63 0 62 1;
#X connect 64 0 65 0;
#X connect 65 0 62 0;
#X connect 66 0 21 1;
#X connect 67 0 71 0;
#X connect 68 0 67 0;
#X connect 69 0 28 0;
#X connect 70 0 69 1;
#X connect 71 0 72 0;
#X connect 72 0 69 0;
#X connect 73 0 23 1;
#X connect 74 0 78 0;
#X connect 75 0 74 0;
#X connect 76 0 29 0;
#X connect 77 0 76 1;
#X connect 78 0 79 0;
#X connect 79 0 76 0;
#X connect 80 0 25 1;
#X connect 81 0 85 0;
#X connect 82 0 81 0;
#X connect 83 0 30 0;
#X connect 84 0 83 1;
#X connect 85 0 86 0;
#X connect 86 0 83 0;
#X connect 87 0 35 0;
#X connect 88 0 31 0;
#X connect 89 0 33 0;
#X connect 90 0 42 0;
#X connect 91 0 38 0;
#X connect 92 0 40 0;
#X connect 93 0 49 0;
#X connect 94 0 45 0;
#X connect 95 0 47 0;
#X connect 96 0 56 0;
#X connect 97 0 52 0;
#X connect 98 0 54 0;
#X connect 99 0 63 0;
#X connect 100 0 59 0;
#X connect 101 0 61 0;
#X connect 102 0 70 0;
#X connect 103 0 66 0;
#X connect 104 0 68 0;
#X connect 105 0 77 0;
#X connect 106 0 73 0;
#X connect 107 0 75 0;
#X connect 108 0 84 0;
#X connect 109 0 80 0;
#X connect 110 0 82 0;
#X coords 0 458 1 457 239 56 0;
#X restore 175 952 pd priors_fdbck;
#X f 92;
#X floatatom 202 915 5 0 0 0 - - - 0;
#X floatatom 242 917 5 0 0 0 - - - 0;
#X floatatom 286 916 5 0 0.99 0 - - - 0;
#X floatatom 283 883 5 0 0 0 - - - 0;
#X floatatom 323 885 5 0 0 0 - - - 0;
#X floatatom 367 884 5 0 0.99 0 - - - 0;
#X floatatom 364 921 5 0 0 0 - - - 0;
#X floatatom 404 923 5 0 0 0 - - - 0;
#X floatatom 448 922 5 0 0.99 0 - - - 0;
#X floatatom 445 889 5 0 0 0 - - - 0;
#X floatatom 485 891 5 0 0 0 - - - 0;
#X floatatom 529 890 5 0 0.99 0 - - - 0;
#X floatatom 524 920 5 0 0 0 - - - 0;
#X floatatom 564 922 5 0 0 0 - - - 0;
#X floatatom 608 921 5 0 0.99 0 - - - 0;
#X floatatom 605 888 5 0 0 0 - - - 0;
#X floatatom 645 890 5 0 0 0 - - - 0;
#X floatatom 689 889 5 0 0.99 0 - - - 0;
#X floatatom 686 926 5 0 0 0 - - - 0;
#X floatatom 726 928 5 0 0 0 - - - 0;
#X floatatom 750 909 5 0 0.99 0 - - - 0;
#X floatatom 747 876 5 0 0 0 - - - 0;
#X floatatom 787 878 5 0 0 0 - - - 0;
#X floatatom 831 877 5 0 0.99 0 - - - 0;
#X obj 225 843 unpack f f f f f f f f f f f f f f f f f f f f f f f f, f 89;
#X msg 230 815 0.1 1 0.1 0.1 1 0.1 0.1 1 0.1 0.1 1 0.1 0.1 1 0.1 0.1 1 0.1 0.1 1 0.1 0.1 1 0.1, f 88;
#X msg 239 791 0.1 1 0.9 0.1 1 0.1 0.1 1 0.1 0.1 1 0.1 0.1 1 0.1 0.1 1 0.1 0.1 1 0.1 0.1 1 0.1, f 88;
#X msg 217 767 0.1 100 0.9 0.1 1 0.5 0.1 1 0.1 0.1 1 0.1 0.1 1 0.1 0.1 1 0.1 0.1 1 0.1 0.1 1 0.1, f 88;
#X msg 216 607 0.1 100 0.9 0.1 1 0.5 0.1 1 0.1 0.1 1 0.1 0.1 1 0.1 0.1 1 0.1 0.1 1 0.1 0.1 100 0.9, f 88;
#X msg 234 629 0.1 100 0.9 0.1 1 0.5 0.1 1 0.1 0.1 1 0.1 0.1 1 0.1 0.1 1 0.1 0.1 100 0.9 15 100 0.9, f 88;
#X msg 239 653 0.1 100 0.9 0.1 1 0.5 0.1 1000 0.9 0.1 1 0.1 0.1 1 0.1 0.1 1 0.1 0.1 100 0.9 15 100 0.9, f 88;
#X msg 262 674 0.1 100 0.9 0.1 1 0.5 0.1 1000 0.9 55 100 0.55 0.1 1 0.1 0.1 1 0.1 0.1 100 0.9 15 100 0.9, f 91;
#X msg 267 719 0.1 100 0.9 0.1 1 0.5 0.1 100 0.9 55 100 0.55 5 55 0.75 0.1 1 0.1 0.1 100 0.9 15 100 0.9, f 91;
#X msg 286 743 0.1 1 0 0.1 101 0 0.1 100 0.9 55 100 0.55 5 55 0 0.1 5 0 0.1 100 0.9 15 100 0, f 78;
#X msg 302 696 0.1 1 0 0.1 101 0 5 100 0 55 100 0.55 5 55 0 0.1 5 0 0.1 1000 0.9 15 100 0, f 78;
#X text 201 368 M1;
#X obj 203 1175 *~;
#X obj 265 1160 hsl 50 19 0 1 0 0 empty empty empty -2 -10 0 12 #fcfcfc #000000 #000000 0 1;
#X floatatom 262 1184 5 0 0 0 - - - 0;
#X obj 1003 1008 Limiter2;
#X obj 203 1083 Limiter1;
#X obj 821 1316 vs.gain~;
#X obj 358 1444 dac~, f 67;
#X obj 357 1187 r~ m1;
#X obj 357 1254 else/pan2~;
#X obj 425 1230 else/f2s~ 10;
#X obj 543 1180 r~ m2;
#X obj 714 1180 r~ m3;
#X obj 358 1316 vs.gain~;
#X obj 541 1251 else/pan2~;
#X obj 609 1227 else/f2s~ 10;
#X obj 820 1291 LimiterTOT2;
#X obj 714 1251 else/pan2~;
#X obj 782 1227 else/f2s~ 10;
#N canvas 221 496 1235 873 midi! 1;
#X obj 24 9 ctlin;
#X floatatom 24 33 5 0 0 0 - - - 0;
#X floatatom 39 58 5 0 0 0 - - - 0;
#X floatatom 54 82 5 0 0 0 - - - 0;
#X obj 25 113 s vl;
#X obj 42 136 s cc;
#X obj 85 175 t b f;
#X obj 61 215 pack f f;
#X obj 320 14 r pairs;
#X obj 61 239 s pairs;
#X obj 27 163 r cc;
#X obj 85 154 r vl;
#X floatatom 320 62 5 0 0 0 - - - 0;
#X floatatom 341 85 5 0 0 0 - - - 0;
#X floatatom 369 63 5 0 0 0 - - - 0;
#X floatatom 397 84 5 0 0 0 - - - 0;
#X floatatom 425 61 5 0 0 0 - - - 0;
#X floatatom 445 86 5 0 0 0 - - - 0;
#X floatatom 538 68 5 0 0 0 - - - 0;
#X floatatom 559 91 5 0 0 0 - - - 0;
#X floatatom 587 69 5 0 0 0 - - - 0;
#X floatatom 615 90 5 0 0 0 - - - 0;
#X floatatom 641 69 5 0 0 0 - - - 0;
#X floatatom 663 92 5 0 0 0 - - - 0;
#X floatatom 751 69 5 0 0 0 - - - 0;
#X floatatom 772 92 5 0 0 0 - - - 0;
#X floatatom 800 70 5 0 0 0 - - - 0;
#X floatatom 828 91 5 0 0 0 - - - 0;
#X floatatom 854 70 5 0 0 0 - - - 0;
#X floatatom 876 93 5 0 0 0 - - - 0;
#X obj 537 10 r pairs;
#X obj 746 14 r pairs;
#X obj 398 295 s fd1;
#X obj 423 149 s kn1-2;
#X obj 444 236 s kn1-4;
#X obj 367 186 s kn1-5;
#X obj 540 145 s kn2-1;
#X obj 559 117 s kn2-2;
#X obj 549 239 s kn2-3;
#X obj 614 222 s kn2-4;
#X obj 606 145 s kn2-5;
#X obj 750 270 s kn3-3;
#X obj 747 143 s kn3-1;
#X obj 829 168 s kn3-5;
#X obj 772 119 s kn3-2;
#X obj 860 259 s kn3-4;
#X obj 987 13 r pairs;
#X obj 987 37 route 62;
#X floatatom 987 65 5 0 0 0 - - - 0;
#X obj 988 182 s volGEN;
#X obj 987 87 / 127;
#X obj 987 110 * 76;
#X obj 988 135 - 70;
#X floatatom 988 159 5 0 0 0 - - - 0;
#X obj 317 213 / 127;
#X obj 317 235 * 2;
#X obj 317 259 - 1;
#X obj 317 158 s kn1-1;
#X obj 317 283 s kn1-3;
#X obj 444 212 + 100;
#X obj 614 195 + 100;
#X obj 551 169 / 127;
#X obj 551 191 * 2;
#X obj 551 215 - 1;
#X obj 750 199 / 127;
#X obj 750 221 * 2;
#X obj 750 245 - 1;
#X obj 860 227 + 100;
#X obj 860 203 * 20;
#X obj 614 171 * 20;
#X obj 444 188 * 20;
#X obj 396 248 / 127;
#X obj 664 164 s fd2;
#X obj 662 118 / 127;
#X obj 877 142 s fd3;
#X obj 880 119 / 127;
#X obj 830 406 bng 19 250 50 0 empty empty empty 0 -10 0 12 #fcfcfc #000000 #000000;
#X obj 830 384 r lst;
#X obj 295 409 r pairs;
#X msg 245 356 disconnect;
#X obj 314 559 spigot;
#X obj 382 504 tgl 19 0 empty empty empty 0 -10 0 12 #fcfcfc #000000 #000000 0 1;
#X obj 320 38 route 16 17 18 19 20 21 22;
#X floatatom 472 64 5 0 0 0 - - - 0;
#X obj 474 114 s kn1-6;
#X obj 313 689 tgl 19 0 empty empty empty 0 -10 0 12 #fcfcfc #000000 #000000 0 1;
#X obj 537 39 route 28 46 29 47 30 31 48;
#X floatatom 688 71 5 0 0 0 - - - 0;
#X obj 746 41 route 54 58 55 56 59 57 60;
#X floatatom 900 68 5 0 0 0 - - - 0;
#X obj 397 271 * 2;
#X obj 664 141 * 2;
#X msg 354 341 connect localhost 5001;
#X msg 831 433 listen 5000;
#X floatatom 146 553 5 0 0 0 - - - 0;
#X obj 309 648 netsend -u;
#X obj 337 435 sel 16 20 18 22 28 46 30 48 54 58 56 60, f 61;
#X obj 1000 647 print;
#X obj 883 513 oscparse;
#X obj 831 465 netreceive -u -b 5000;
#X obj 838 704 s v2;
#X obj 900 704 s v1;
#X obj 871 730 s v3;
#X obj 945 597 list trim;
#X obj 838 664 route v0 v1 v2;
#X connect 0 0 1 0;
#X connect 0 1 2 0;
#X connect 0 2 3 0;
#X connect 1 0 4 0;
#X connect 2 0 5 0;
#X connect 6 0 7 0;
#X connect 6 1 7 1;
#X connect 7 0 9 0;
#X connect 8 0 82 0;
#X connect 10 0 7 0;
#X connect 11 0 6 0;
#X connect 12 0 57 0;
#X connect 13 0 54 0;
#X connect 14 0 35 0;
#X connect 15 0 71 0;
#X connect 16 0 33 0;
#X connect 17 0 70 0;
#X connect 18 0 36 0;
#X connect 19 0 37 0;
#X connect 20 0 61 0;
#X connect 21 0 69 0;
#X connect 22 0 40 0;
#X connect 23 0 73 0;
#X connect 24 0 42 0;
#X connect 25 0 44 0;
#X connect 26 0 64 0;
#X connect 27 0 43 0;
#X connect 28 0 68 0;
#X connect 29 0 75 0;
#X connect 30 0 86 0;
#X connect 31 0 88 0;
#X connect 46 0 47 0;
#X connect 47 0 48 0;
#X connect 48 0 50 0;
#X connect 50 0 51 0;
#X connect 51 0 52 0;
#X connect 52 0 53 0;
#X connect 53 0 49 0;
#X connect 54 0 55 0;
#X connect 55 0 56 0;
#X connect 56 0 58 0;
#X connect 59 0 34 0;
#X connect 60 0 39 0;
#X connect 61 0 62 0;
#X connect 62 0 63 0;
#X connect 63 0 38 0;
#X connect 64 0 65 0;
#X connect 65 0 66 0;
#X connect 66 0 41 0;
#X connect 67 0 45 0;
#X connect 68 0 67 0;
#X connect 69 0 60 0;
#X connect 70 0 59 0;
#X connect 71 0 90 0;
#X connect 73 0 91 0;
#X connect 75 0 74 0;
#X connect 76 0 93 0;
#X connect 77 0 76 0;
#X connect 78 0 80 0;
#X connect 78 0 96 0;
#X connect 79 0 95 0;
#X connect 80 0 95 0;
#X connect 81 0 80 1;
#X connect 82 0 12 0;
#X connect 82 1 13 0;
#X connect 82 2 14 0;
#X connect 82 3 15 0;
#X connect 82 4 16 0;
#X connect 82 5 17 0;
#X connect 82 6 83 0;
#X connect 83 0 84 0;
#X connect 86 0 18 0;
#X connect 86 1 19 0;
#X connect 86 2 20 0;
#X connect 86 3 21 0;
#X connect 86 4 22 0;
#X connect 86 5 23 0;
#X connect 86 6 87 0;
#X connect 88 0 24 0;
#X connect 88 1 25 0;
#X connect 88 2 26 0;
#X connect 88 3 27 0;
#X connect 88 4 28 0;
#X connect 88 5 29 0;
#X connect 88 6 89 0;
#X connect 90 0 32 0;
#X connect 91 0 72 0;
#X connect 92 0 95 0;
#X connect 93 0 99 0;
#X connect 94 0 95 0;
#X connect 95 0 85 0;
#X connect 96 0 81 0;
#X connect 96 1 81 0;
#X connect 96 2 81 0;
#X connect 96 3 81 0;
#X connect 96 4 81 0;
#X connect 96 5 81 0;
#X connect 96 6 81 0;
#X connect 96 7 81 0;
#X connect 96 8 81 0;
#X connect 96 9 81 0;
#X connect 96 10 81 0;
#X connect 96 11 81 0;
#X connect 96 12 81 0;
#X connect 98 0 103 0;
#X connect 99 0 98 0;
#X connect 103 0 97 0;
#X connect 103 0 104 0;
#X connect 104 0 100 0;
#X connect 104 1 102 0;
#X connect 104 2 101 0;
#X restore 992 1203 pd midi!;
#X obj 357 1291 LimiterTOT1;
#X obj 609 1341 r volGEN;
#X floatatom 422 1385 5 0 0 0 - - - 0;
#X obj 608 1366 pack f 10;
#X obj 608 1390 line;
#X floatatom 608 1414 5 0 0 0 - - - 0;
#X floatatom 427 1136 5 0 0 0 - - - 0;
#X obj 427 1112 r kn1-3;
#X obj 427 1159 pack f \$1;
#X obj 426 1182 line;
#X floatatom 426 1206 5 0 0 0 - - - 0;
#X obj 486 1132 r kn1-4;
#X floatatom 502 1157 5 0 0 0 - - - 0;
#X floatatom 613 1133 5 0 0 0 - - - 0;
#X obj 613 1156 pack f \$1;
#X obj 612 1179 line;
#X floatatom 612 1203 5 0 0 0 - - - 0;
#X floatatom 688 1154 5 0 0 0 - - - 0;
#X obj 613 1109 r kn2-3;
#X obj 672 1129 r kn2-4;
#X floatatom 785 1132 5 0 0 0 - - - 0;
#X obj 785 1155 pack f \$1;
#X obj 784 1178 line;
#X floatatom 784 1202 5 0 0 0 - - - 0;
#X floatatom 860 1153 5 0 0 0 - - - 0;
#X obj 785 1108 r kn3-3;
#X obj 844 1128 r kn3-4;
#X obj 267 1106 pack f 10;
#X obj 267 1130 line;
#X obj 1067 1024 pack f 10;
#X obj 1067 1048 line;
#X obj 1816 998 pack f 10;
#X obj 1816 1022 line;
#X obj 236 366 r v1;
#X obj 44 680 s lst;
#X obj 44 637 bng 36 250 50 0 empty empty empty 0 -10 0 12 #fcfcfc #000000 #000000;
#X obj 33 585 del 500;
#X msg 247 75 5 10 0.35 0.1 1 0.5 0.1 1 0.1 0.1 1 0.1 0.1 1 0.1 0.1 1 0.1 0.1 1 0.1 0.1 51 0.35, f 82;
#X obj 148 1287 vs.scope~;
#X msg 250 101 15 10 0.35 0.1 1 0.5 0.1 1 0.15 0.1 1 0.25 0.1 1 0.73 0.1 1 0.44 0.1 1 0.1 0.1 51 0.35, f 88;
#X msg 259 125 15 10 0.35 3 370 0.5 0.1 1 0.15 0.1 1 0.25 0.1 77 0.73 0.1 1 0.44 0.1 1 0.1 0.1 51 0.35, f 88;
#X msg 269 148 15 10 0.35 3 370 0.5 0.1 13 0.93 0.1 100 0.61 0.1 77 0.57 0.1 1 0.44 0.1 1 0.1 0.1 51 0.35, f 92;
#X msg 279 173 7 31 0.85 3 150 0.85 0.1 130 0.03 0.1 100 0.61 0.1 7 0.66 0.1 1 0.44 0.1 1 0.1 0.1 51 0.35, f 92;
#X msg 288 199 4 11 0.65 3 53 0.65 0.1 90 0.22 3 100 0.61 0.41 7 0.66 0.1 1 0.44 0.1 1 0.1 0.5 61 0.65, f 88;
#X msg 298 221 4 11 0.65 3 53 0.65 0.1 90 0.22 3 100 0.61 0.41 7 0.66 11 37 0.47 0.01 10 0.81 1.3 16 0.75, f 92;
#X msg 308 244 11 111 0.35 13 133 0.45 0.07 21 0.29 3 100 0.61 0.41 7 0.66 11 37 0.47 0.01 10 0.81 1.3 16 0.75, f 95;
#X msg 313 270 0.13 9 0.65 3 53 0.65 0.1 19 0.27 3 100 0.31 0.81 7 0.96 11 37 0.47 0.01 10 0.81 1.3 16 0.35, f 92;
#X msg 312 295 1.9 17 0.39 0.6 13 0.15 0.7 31 0.39 0.3 10 0.1 0.01 17 0.76 1.4 17 0.07 0.03 12 0.89 3 60 0.35, f 97;
#X msg 316 333 7.9 7 0.79 0.7 73 0.75 0.7 71 0.37 0.7 10 0.7 0.71 77 0.77 7.4 76 0.77 0.73 17 0.79 7 70 0.37, f 97;
#X msg 315 357 7.3 3 0.73 0.3 33 0.73 0.3 31 0.33 0.3 33 0.3 0.31 37 0.7 7.3 73 0.37 0.13 47 0.39 3 33 0.37, f 97;
#X msg 319 380 5.3 5 0.53 0.5 53 0.53 0.5 35 0.53 0.5 35 0.5 0.51 35 0.5 5.3 53 0.57 0.53 45 0.35 5 35 0.57, f 97;
#X msg 320 402 2.3 2 0.23 0.22 23 0.23 0.2 25 0.23 0.52 32 0.2 0.21 32 0.25 5.2 52 0.27 0.23 25 0.25 2 25 0.27, f 97;
#X msg 314 427 1.3 21 0.13 0.21 13 0.13 0.12 15 0.21 0.51 12 0.12 0.11 11 0.15 1.2 11 0.17 0.21 15 0.15 21 15 0.21, f 100;
#X msg 317 449 6.33 85 0.15 6.96 40 0.18 3.12 47 0.92 6.61 2 0.06 14.01 76 0.21 4.38 63 0.3 11.74 12 0.92 6.56 84 0.57, f 103;
#X msg 322 474 11.59 77 0.9 5.39 65 0.32 9.58 75 0.1 4.87 77 0.46 0.4 10 0.51 9.27 6 0.69 11.15 27 0.27 5.74 10 0.44, f 107;
#X msg 343 497 9.78 57 0.6 5.33 84 0.51 4.98 23 0.46 9.65 87 1 1.12 76 0.96 3.7 47 0.74 13.4 21 0.29 11.07 96 0.23, f 108;
#X msg 364 523 7.17 31 0.89 12.3 55 0.96 2.96 45 0.74 10.66 64 0.78 8.79 81 0.46 4.54 79 0.26 7.07 18 0.29 0.56 63 0.52, f 105;
#X msg 370 553 11.02 17 0.71 5.84 43 0.81 10.51 16 0.2 9.79 8 0.62 10.56 17 0.95 5.48 63 0.52 11.63 43 0.73 14.89 73 0.75, f 106;
#X msg 112 35 0.1 79.18 0.55 0.1 50.82 0.27 0.82 307.95 0.64 37.87 72.46 0.37 2.31 38.46 0 0.1 2.79 0.07 0.1 124.31 0.9 15 100 0.47, f 136;
#X msg 92 12 0.1 81.81 0.62 0.1 47.21 0.32 0.87 461.02 0.72 41.42 80.18 0.39 2.34 35.97 0.02 0.1 2.75 0.07 0.1 118.18 0.9 15 94.47 0.44, f 138;
#X msg 2029 369 0 4.78 8.13 0 1.5 1.67 0 0.76 0 3.02 0.55 1.67 4.21 1.82 3.67 0.24;
#X msg 2062 301 0 4.44 7.46 0 1.53 1.68 0 0.5 0 2.22 0.3 1.4 3.74 1.84 2.76 0.35;
#X msg 1222 342 4.68 0.95 0 0.26 1 9.07 0.08 4.14 30.19 0.11 0.91 50 0.06;
#X msg 1254 249 4.93 0.95 0 0.26 1 9 0.08 4.03 29.83 0.13 0.9 50 0.06;
#X msg 19 390 \; pd dsp 1 \; ThreshRef1 70 \; ForwCtrl1 10 \; ThreshRef2 70 \; ForwCtrl2 10 \; ThreshRef3 50 \; ForwCtrl3 10 \; ThreshRefT 70 \; ForwCtrlT 10 \; ThreshRefT2 70 \; ForwCtrlT2 10 \;;
#X obj 943 661 print;
#X obj 541 1208 *~ 0.33;
#X obj 270 1083 r fd3;
#X obj 1074 1001 r fd1;
#X obj 1819 975 r fd2;
#X obj 203 1201 s~ m3;
#X obj 1000 1116 s~ m1;
#X obj 1749 1088 s~ m2;
#X obj 716 1208 *~ 4;
#X obj 360 1210 *~ 0.5;
#X connect 0 0 19 1;
#X connect 0 1 19 2;
#X connect 0 2 19 3;
#X connect 0 3 19 4;
#X connect 0 4 19 5;
#X connect 0 5 19 6;
#X connect 0 6 19 7;
#X connect 0 7 19 8;
#X connect 1 0 19 9;
#X connect 2 0 1 0;
#X connect 3 0 19 10;
#X connect 4 0 3 0;
#X connect 5 0 19 11;
#X connect 6 0 5 0;
#X connect 7 0 19 12;
#X connect 8 0 7 0;
#X connect 9 0 19 13;
#X connect 10 0 9 0;
#X connect 11 0 19 14;
#X connect 12 0 11 0;
#X connect 13 0 14 0;
#X connect 14 0 83 0;
#X connect 15 0 13 0;
#X connect 16 0 17 0;
#X connect 17 0 18 0;
#X connect 18 0 2 0;
#X connect 18 1 4 0;
#X connect 18 2 6 0;
#X connect 18 3 8 0;
#X connect 18 4 10 0;
#X connect 18 5 12 0;
#X connect 19 0 15 0;
#X connect 19 1 15 1;
#X connect 19 2 15 2;
#X connect 19 3 15 3;
#X connect 20 0 19 0;
#X connect 21 0 19 0;
#X connect 22 0 19 0;
#X connect 23 0 19 0;
#X connect 24 0 19 0;
#X connect 25 0 19 0;
#X connect 26 0 19 0;
#X connect 27 0 19 0;
#X connect 28 0 19 0;
#X connect 29 0 19 0;
#X connect 30 0 19 0;
#X connect 31 0 19 0;
#X connect 32 0 19 0;
#X connect 33 0 19 0;
#X connect 34 0 19 0;
#X connect 36 0 220 0;
#X connect 37 0 38 0;
#X connect 37 0 36 1;
#X connect 39 0 46 0;
#X connect 40 0 42 0;
#X connect 41 0 39 2;
#X connect 42 0 43 0;
#X connect 43 0 44 0;
#X connect 44 0 39 1;
#X connect 45 0 44 1;
#X connect 46 0 55 0;
#X connect 47 0 40 0;
#X connect 48 0 49 0;
#X connect 49 0 50 0;
#X connect 50 0 51 0;
#X connect 51 0 39 3;
#X connect 52 0 51 1;
#X connect 53 0 48 0;
#X connect 54 0 39 4;
#X connect 55 0 132 0;
#X connect 56 0 212 0;
#X connect 56 0 184 0;
#X connect 57 0 58 0;
#X connect 58 0 59 0;
#X connect 59 0 60 0;
#X connect 60 0 39 5;
#X connect 61 0 60 1;
#X connect 62 0 57 0;
#X connect 63 0 39 6;
#X connect 64 0 65 0;
#X connect 65 0 66 0;
#X connect 66 0 67 0;
#X connect 67 0 39 7;
#X connect 68 0 67 1;
#X connect 69 0 64 0;
#X connect 70 0 39 8;
#X connect 71 0 39 0;
#X connect 72 0 71 0;
#X connect 73 0 75 0;
#X connect 74 0 72 0;
#X connect 74 1 47 0;
#X connect 74 2 45 0;
#X connect 74 3 41 0;
#X connect 74 4 53 0;
#X connect 74 5 52 0;
#X connect 74 6 54 0;
#X connect 74 7 62 0;
#X connect 74 8 61 0;
#X connect 74 9 63 0;
#X connect 74 10 69 0;
#X connect 74 11 68 0;
#X connect 74 12 70 0;
#X connect 75 0 74 0;
#X connect 76 0 74 0;
#X connect 77 0 74 0;
#X connect 78 0 74 0;
#X connect 79 0 74 0;
#X connect 80 0 74 0;
#X connect 82 0 74 0;
#X connect 83 0 36 0;
#X connect 84 0 219 0;
#X connect 85 0 86 0;
#X connect 85 0 84 1;
#X connect 87 0 19 0;
#X connect 88 0 74 0;
#X connect 89 0 90 0;
#X connect 90 0 91 0;
#X connect 91 0 133 0;
#X connect 92 0 89 0;
#X connect 92 1 89 1;
#X connect 92 2 89 2;
#X connect 92 3 89 3;
#X connect 92 4 89 4;
#X connect 92 5 89 5;
#X connect 92 6 89 6;
#X connect 92 7 89 7;
#X connect 93 0 92 1;
#X connect 94 0 92 2;
#X connect 95 0 92 3;
#X connect 96 0 92 4;
#X connect 97 0 92 5;
#X connect 98 0 92 6;
#X connect 99 0 92 7;
#X connect 100 0 92 8;
#X connect 101 0 92 9;
#X connect 102 0 92 10;
#X connect 103 0 92 11;
#X connect 104 0 92 12;
#X connect 105 0 92 13;
#X connect 106 0 92 14;
#X connect 107 0 92 15;
#X connect 108 0 92 16;
#X connect 109 0 92 17;
#X connect 110 0 92 18;
#X connect 111 0 92 19;
#X connect 112 0 92 20;
#X connect 113 0 92 21;
#X connect 114 0 92 22;
#X connect 115 0 92 23;
#X connect 116 0 92 24;
#X connect 117 0 93 0;
#X connect 117 1 94 0;
#X connect 117 2 95 0;
#X connect 117 3 96 0;
#X connect 117 4 97 0;
#X connect 117 5 98 0;
#X connect 117 6 99 0;
#X connect 117 7 100 0;
#X connect 117 8 101 0;
#X connect 117 9 102 0;
#X connect 117 10 103 0;
#X connect 117 11 104 0;
#X connect 117 12 105 0;
#X connect 117 13 106 0;
#X connect 117 14 107 0;
#X connect 117 15 108 0;
#X connect 117 16 109 0;
#X connect 117 17 110 0;
#X connect 117 18 111 0;
#X connect 117 19 112 0;
#X connect 117 20 113 0;
#X connect 117 21 114 0;
#X connect 117 22 115 0;
#X connect 117 23 116 0;
#X connect 118 0 117 0;
#X connect 119 0 117 0;
#X connect 120 0 117 0;
#X connect 121 0 117 0;
#X connect 122 0 117 0;
#X connect 123 0 117 0;
#X connect 124 0 117 0;
#X connect 125 0 117 0;
#X connect 126 0 117 0;
#X connect 127 0 117 0;
#X connect 129 0 186 0;
#X connect 129 0 218 0;
#X connect 130 0 131 0;
#X connect 130 0 129 1;
#X connect 132 0 84 0;
#X connect 133 0 129 0;
#X connect 134 0 135 1;
#X connect 136 0 222 0;
#X connect 137 0 148 0;
#X connect 137 1 144 0;
#X connect 138 0 137 1;
#X connect 139 0 214 0;
#X connect 140 0 221 0;
#X connect 141 0 135 0;
#X connect 141 1 150 0;
#X connect 142 0 148 0;
#X connect 142 1 144 0;
#X connect 143 0 142 1;
#X connect 144 0 134 0;
#X connect 145 0 148 0;
#X connect 145 1 144 0;
#X connect 146 0 145 1;
#X connect 148 0 141 0;
#X connect 149 0 151 0;
#X connect 151 0 152 0;
#X connect 152 0 153 0;
#X connect 153 0 141 1;
#X connect 153 0 134 1;
#X connect 154 0 156 0;
#X connect 155 0 154 0;
#X connect 156 0 157 0;
#X connect 157 0 158 0;
#X connect 158 0 138 0;
#X connect 159 0 156 1;
#X connect 159 0 160 0;
#X connect 161 0 162 0;
#X connect 162 0 163 0;
#X connect 163 0 164 0;
#X connect 164 0 143 0;
#X connect 166 0 161 0;
#X connect 167 0 162 1;
#X connect 167 0 165 0;
#X connect 168 0 169 0;
#X connect 169 0 170 0;
#X connect 170 0 171 0;
#X connect 171 0 146 0;
#X connect 173 0 168 0;
#X connect 174 0 169 1;
#X connect 174 0 172 0;
#X connect 175 0 176 0;
#X connect 176 0 130 0;
#X connect 177 0 178 0;
#X connect 178 0 85 0;
#X connect 179 0 180 0;
#X connect 180 0 37 0;
#X connect 181 0 117 0;
#X connect 183 0 182 0;
#X connect 184 0 183 0;
#X connect 185 0 117 0;
#X connect 187 0 117 0;
#X connect 188 0 117 0;
#X connect 189 0 117 0;
#X connect 190 0 117 0;
#X connect 191 0 117 0;
#X connect 192 0 117 0;
#X connect 193 0 117 0;
#X connect 194 0 117 0;
#X connect 195 0 117 0;
#X connect 196 0 117 0;
#X connect 197 0 117 0;
#X connect 198 0 117 0;
#X connect 199 0 117 0;
#X connect 200 0 117 0;
#X connect 201 0 117 0;
#X connect 202 0 117 0;
#X connect 203 0 117 0;
#X connect 204 0 117 0;
#X connect 205 0 117 0;
#X connect 206 0 117 0;
#X connect 207 0 117 0;
#X connect 208 0 19 0;
#X connect 209 0 19 0;
#X connect 210 0 74 0;
#X connect 211 0 74 0;
#X connect 214 0 142 0;
#X connect 215 0 175 0;
#X connect 216 0 177 0;
#X connect 217 0 179 0;
#X connect 221 0 145 0;
#X connect 222 0 137 0;
